<svg xmlns="http://www.w3.org/2000/svg" viewBox="0 0 48 48"><path fill-rule="evenodd" d="M10 24h19a2 2 0 0 1 2 2v8a2 2 0 0 1-2 2H10v4a2 2 0 0 0 2 2h24a2 2 0 0 0 2-2V19H27a2 2 0 0 1-2-2V6H12a2 2 0 0 0-2 2v16zM8 36a2 2 0 0 1-2-2v-8a2 2 0 0 1 2-2V8a4 4 0 0 1 4-4h15.172a2 2 0 0 1 1.414.586l10.828 10.828A2 2 0 0 1 40 16.828V40a4 4 0 0 1-4 4H12a4 4 0 0 1-4-4v-4zM27 6v11h11L27 6zM11.528 33.91c.653 0 1.221-.112 1.705-.335.484-.224.86-.53 1.127-.919.268-.389.41-.825.424-1.309a.185.185 0 0 0-.06-.165.243.243 0 0 0-.171-.066h-1.067c-.088 0-.154.02-.198.06a.464.464 0 0 0-.11.215c-.11.455-.302.775-.578.962-.275.188-.632.281-1.072.281-1.049 0-1.595-.587-1.639-1.76a29.406 29.406 0 0 1-.011-.935c0-.41.004-.715.011-.913.044-1.173.59-1.76 1.639-1.76.447 0 .807.093 1.078.28.271.188.462.508.572.963.03.103.066.174.11.215.044.04.11.06.198.06h1.067a.24.24 0 0 0 .16-.06.187.187 0 0 0 .071-.149v-.022a2.387 2.387 0 0 0-.424-1.309c-.267-.389-.643-.695-1.127-.918-.484-.224-1.052-.336-1.705-.336-1.005 0-1.786.262-2.343.787-.557.524-.854 1.255-.891 2.194a31.19 31.19 0 0 0-.011.99c0 .447.004.77.011.968.037.953.332 1.688.886 2.206.553.517 1.336.775 2.348.775zm7.249 0c.623 0 1.171-.092 1.645-.275.473-.183.84-.45 1.1-.797.26-.349.39-.761.39-1.238 0-.433-.092-.788-.275-1.067-.183-.279-.467-.51-.852-.693-.386-.183-.904-.348-1.557-.495a9.992 9.992 0 0 1-1.089-.335c-.25-.1-.433-.215-.55-.347a.718.718 0 0 1-.176-.495c0-.293.115-.517.346-.671.232-.154.549-.231.952-.231.367 0 .675.079.924.237.25.157.392.353.429.588.059.132.169.198.33.198h1.045a.215.215 0 0 0 .165-.072.23.23 0 0 0 .066-.159c-.015-.315-.137-.632-.369-.951-.23-.32-.568-.585-1.011-.798-.444-.213-.97-.319-1.579-.319-.58 0-1.087.095-1.523.286-.437.19-.772.453-1.007.787a1.93 1.93 0 0 0-.352 1.138c0 .63.202 1.115.605 1.452.403.337 1.038.609 1.903.814a14 14 0 0 1 1.194.358c.267.099.467.214.599.346a.672.672 0 0 1 .198.495c0 .3-.13.537-.39.71-.26.172-.648.258-1.161.258-.455 0-.812-.084-1.073-.253-.26-.169-.427-.378-.5-.627a.584.584 0 0 0-.143-.154.333.333 0 0 0-.198-.055h-1.001a.215.215 0 0 0-.165.071.23.23 0 0 0-.066.16c.015.381.143.733.385 1.056.242.323.598.583 1.067.781.47.198 1.034.297 1.694.297zm6.369-.11h1.221c.213 0 .356-.103.429-.308l2.343-7.062.022-.099a.215.215 0 0 0-.072-.165.23.23 0 0 0-.159-.066h-.99a.338.338 0 0 0-.231.077.328.328 0 0 0-.11.165l-1.848 5.632-1.837-5.632a.417.417 0 0 0-.121-.165.338.338 0 0 0-.231-.077h-.979a.224.224 0 0 0-.231.231c0 .044.004.077.011.099l2.354 7.062c.066.205.209.308.429.308z"/></svg>