<svg xmlns="http://www.w3.org/2000/svg" xmlns:xlink="http://www.w3.org/1999/xlink" viewBox="0 0 800 168"><defs><path id="a" d="M0 4v32a4 4 0 0 0 4 4h24a4 4 0 0 0 4-4V12.828a2 2 0 0 0-.586-1.414L20.586.586A2 2 0 0 0 19.172 0H4a4 4 0 0 0-4 4z"/></defs><g fill="none" fill-rule="evenodd"><path fill="#E3E3E3" fill-rule="nonzero" d="M154 65H88v-2h66v-6l14 7-14 7v-6zm384 0h-66v-2h66v-6l14 7-14 7v-6z"/><path stroke="#E3E3E3" stroke-width="2" d="M216 64h80"/><path fill="#E3E3E3" fill-rule="nonzero" d="M410 65h-66v-2h66v-6l14 7-14 7v-6z"/><path fill="#E3E3E3" d="M308 48v-2a2 2 0 0 1 2-2h20a2 2 0 0 1 2 2v2h2a4 4 0 0 1 4 4v28a4 4 0 0 1-4 4h-28a4 4 0 0 1-4-4V52a4 4 0 0 1 4-4h2zm0 2h-2a2 2 0 0 0-2 2v28a2 2 0 0 0 2 2h28a2 2 0 0 0 2-2V52a2 2 0 0 0-2-2h-2v2a2 2 0 0 1-2 2h-20a2 2 0 0 1-2-2v-2zm2-4v6h20v-6h-20zm11 16h10a1 1 0 0 1 0 2h-10a1 1 0 0 1 0-2zm0 10h10a1 1 0 0 1 0 2h-10a1 1 0 0 1 0-2zm-11.293-11.707L311 61.586l3.293-3.293a1 1 0 0 1 1.414 1.414l-4 4a1 1 0 0 1-1.414 0l-2-2a1 1 0 0 1 1.414-1.414zm0 10L311 71.586l3.293-3.293a1 1 0 0 1 1.414 1.414l-4 4a1 1 0 0 1-1.414 0l-2-2a1 1 0 0 1 1.414-1.414z"/><g transform="translate(176 44)"><mask id="b" fill="#fff"><use xlink:href="#a"/></mask><use fill="#23A566" xlink:href="#a"/><rect width="14" height="12" x="9" y="22" fill="#8ED1B1" mask="url(#b)" rx="2"/><path fill="#8ED1B1" d="M17 0h15v15H19a2 2 0 0 1-2-2V0z" mask="url(#b)"/></g><path fill="#000" d="M580 74h14v-8h-36v8h22zm.4 2l1.2 6h5.4a1 1 0 0 1 0 2h-22a1 1 0 0 1 0-2h5.4l1.2-6H558a2 2 0 0 1-2-2V46a2 2 0 0 1 2-2h36a2 2 0 0 1 2 2v28a2 2 0 0 1-2 2h-13.6zM594 64V46h-36v18h36zm-18 4a2 2 0 1 1 0 4 2 2 0 0 1 0-4z"/><text fill="#000" font-family="Rubik-Regular, Rubik" font-size="15"><tspan x="176" y="106">Google</tspan> <tspan x="176" y="124">Sheets</tspan></text><text fill="#000" font-family="Rubik-Regular, Rubik" font-size="15"><tspan x="551.295" y="106">4Game</tspan></text><path fill="#000" d="M60 81V69a2 2 0 0 1 2-2h4a2 2 0 0 1 2 2v12h10V62.99a5 5 0 0 1-.301.01H74a1 1 0 0 1-2 0h-4a1 1 0 0 1-2 0h-4a1 1 0 0 1-2 0h-4a1 1 0 0 1-2 0h-3.699c-.101 0-.201-.003-.301-.009V81h10zm-6-20v-2a1 1 0 0 1 2 0v2h4v-2a1 1 0 0 1 2 0v2h4v-2a1 1 0 0 1 2 0v2h4v-2a1 1 0 0 1 2 0v2h3.838a3 3 0 0 0 2.846-3.949l-2.456-7.367a1 1 0 0 0-.949-.684H50.721a1 1 0 0 0-.949.684l-2.456 7.367A3 3 0 0 0 50.162 61H54zm-6 1.44a5 5 0 0 1-2.471-5.931l2.313-7.404A3 3 0 0 1 50.706 47h26.588a3 3 0 0 1 2.864 2.105l2.313 7.404A5.001 5.001 0 0 1 80 62.44V81a2 2 0 0 1-2 2H50a2 2 0 0 1-2-2V62.44z"/><text fill="#000" font-family="Rubik-Regular, Rubik" font-size="15"><tspan x="48" y="106">webshop</tspan></text><path stroke="#000" stroke-width="2" d="M466.342 54.86a1 1 0 0 0-1.674-.449l-6.725 6.726-5.846-1.225-1.225-5.846 6.725-6.726a1 1 0 0 0-.449-1.673c-4.622-1.234-9.045-.146-12.262 3.071-3.404 3.404-4.728 8.866-3.401 12.48l.22.6-9.544 9.545a5.996 5.996 0 0 0-.003 8.488 6.006 6.006 0 0 0 8.488-.003l4.556-4.555 4.545-4.544.409-.408.557.15a12.997 12.997 0 0 0 12.558-3.368c3.217-3.218 4.305-7.64 3.07-12.262z"/><text fill="#000" font-family="Rubik-Regular, Rubik" font-size="15"><tspan x="429" y="106">Внутренний</tspan> <tspan x="429" y="124">инструмент</tspan></text><text fill="#000" fill-opacity=".2" font-family="Rubik-Regular, Rubik" font-size="15"><tspan x="298.392" y="106">×1000</tspan></text></g></svg>